<svg xmlns="http://www.w3.org/2000/svg" viewBox="0 0 36 36">
  <path fill="#DE2910" d="M36 27c0 2.209-1.791 4-4 4H4c-2.209 0-4-1.791-4-4V9c0-2.209 1.791-4 4-4h28c2.209 0 4 1.791 4 4v18z"/>
  <path fill="#FFDE00" d="M10.5 9.6l2.1 6.6H20l-6 4.4 2.3 7-6.1-4.5-6.1 4.5 2.3-7-6-4.4h7.4z"/>
  <path fill="#FFDE00" d="M21 10l.4 1.4 1.4.1-1.1.9.4 1.4-1.1-.8-1.1.8.4-1.4-1.1-.9 1.4-.1zM24 14l.4 1.4 1.4.1-1.1.9.4 1.4-1.1-.8-1.1.8.4-1.4-1.1-.9 1.4-.1zM24 20l.4 1.4 1.4.1-1.1.9.4 1.4-1.1-.8-1.1.8.4-1.4-1.1-.9 1.4-.1zM21 24l.4 1.4 1.4.1-1.1.9.4 1.4-1.1-.8-1.1.8.4-1.4-1.1-.9 1.4-.1z"/>
</svg> 